solid OpenSCAD_Model
  facet normal -1 0 0
    outer loop
      vertex 79.375 0.625 10
      vertex 79.375 79.375 15
      vertex 79.375 79.375 10
    endloop
  endfacet
  facet normal -1 -0 0
    outer loop
      vertex 79.375 79.375 15
      vertex 79.375 0.625 10
      vertex 79.375 0.625 15
    endloop
  endfacet
  facet normal 0 0 -1
    outer loop
      vertex 15 0 10
      vertex 20 0.625 10
      vertex 20 0 10
    endloop
  endfacet
  facet normal -0 0 -1
    outer loop
      vertex 20 0.625 10
      vertex 15 0 10
      vertex 15 0.625 10
    endloop
  endfacet
  facet normal 0 0 -1
    outer loop
      vertex 15 1.375 10
      vertex 20 2 10
      vertex 20 1.375 10
    endloop
  endfacet
  facet normal -0 0 -1
    outer loop
      vertex 20 2 10
      vertex 15 1.375 10
      vertex 15 2 10
    endloop
  endfacet
  facet normal 0 0 -1
    outer loop
      vertex 55 0 10
      vertex 60 0.625 10
      vertex 60 0 10
    endloop
  endfacet
  facet normal -0 0 -1
    outer loop
      vertex 60 0.625 10
      vertex 55 0 10
      vertex 55 0.625 10
    endloop
  endfacet
  facet normal 0 0 -1
    outer loop
      vertex 55 1.375 10
      vertex 60 2 10
      vertex 60 1.375 10
    endloop
  endfacet
  facet normal -0 0 -1
    outer loop
      vertex 60 2 10
      vertex 55 1.375 10
      vertex 55 2 10
    endloop
  endfacet
  facet normal 0 0 1
    outer loop
      vertex 79.375 79.375 10
      vertex 78.625 78.625 10
      vertex 79.375 0.625 10
    endloop
  endfacet
  facet normal 0 0 1
    outer loop
      vertex 79.375 79.375 10
      vertex 1.375 78.625 10
      vertex 78.625 78.625 10
    endloop
  endfacet
  facet normal 0 0 1
    outer loop
      vertex 1.375 78.625 10
      vertex 0.625 79.375 10
      vertex 1.375 1.375 10
    endloop
  endfacet
  facet normal -0 0 1
    outer loop
      vertex 0.625 79.375 10
      vertex 1.375 78.625 10
      vertex 79.375 79.375 10
    endloop
  endfacet
  facet normal -0 0 1
    outer loop
      vertex 78.625 1.375 10
      vertex 79.375 0.625 10
      vertex 78.625 78.625 10
    endloop
  endfacet
  facet normal 0 0 1
    outer loop
      vertex 60 0.625 10
      vertex 78.625 1.375 10
      vertex 60 1.375 10
    endloop
  endfacet
  facet normal 0 0 1
    outer loop
      vertex 78.625 1.375 10
      vertex 60 0.625 10
      vertex 79.375 0.625 10
    endloop
  endfacet
  facet normal -0 0 1
    outer loop
      vertex 1.375 1.375 10
      vertex 15 0.625 10
      vertex 15 1.375 10
    endloop
  endfacet
  facet normal 0 0 1
    outer loop
      vertex 1.375 1.375 10
      vertex 0.625 0.625 10
      vertex 15 0.625 10
    endloop
  endfacet
  facet normal 0 0 1
    outer loop
      vertex 0.625 0.625 10
      vertex 1.375 1.375 10
      vertex 0.625 79.375 10
    endloop
  endfacet
  facet normal -0 0 1
    outer loop
      vertex 25 1.375 10
      vertex 50 0.625 10
      vertex 50 1.375 10
    endloop
  endfacet
  facet normal 0 0 1
    outer loop
      vertex 50 0.625 10
      vertex 25 1.375 10
      vertex 25 0.625 10
    endloop
  endfacet
  facet normal 1 -0 0
    outer loop
      vertex 0.625 0.625 15
      vertex 0.625 79.375 10
      vertex 0.625 79.375 15
    endloop
  endfacet
  facet normal 1 0 0
    outer loop
      vertex 0.625 79.375 10
      vertex 0.625 0.625 15
      vertex 0.625 0.625 10
    endloop
  endfacet
  facet normal 0 -1 0
    outer loop
      vertex 15 1.375 10
      vertex 1.375 1.375 15
      vertex 1.375 1.375 10
    endloop
  endfacet
  facet normal 0 -1 0
    outer loop
      vertex 1.375 1.375 15
      vertex 15 1.375 10
      vertex 20 1.375 15
    endloop
  endfacet
  facet normal 0 -1 -0
    outer loop
      vertex 20 1.375 15
      vertex 15 1.375 10
      vertex 20 1.375 10
    endloop
  endfacet
  facet normal 0 -1 0
    outer loop
      vertex 60 1.375 10
      vertex 55 1.375 15
      vertex 55 1.375 10
    endloop
  endfacet
  facet normal 0 -1 0
    outer loop
      vertex 55 1.375 15
      vertex 60 1.375 10
      vertex 78.625 1.375 15
    endloop
  endfacet
  facet normal 0 -1 -0
    outer loop
      vertex 78.625 1.375 15
      vertex 60 1.375 10
      vertex 78.625 1.375 10
    endloop
  endfacet
  facet normal 0 -1 0
    outer loop
      vertex 25 1.375 10
      vertex 50 1.375 15
      vertex 25 1.375 15
    endloop
  endfacet
  facet normal 0 -1 -0
    outer loop
      vertex 50 1.375 15
      vertex 25 1.375 10
      vertex 50 1.375 10
    endloop
  endfacet
  facet normal 0 1 0
    outer loop
      vertex 60 0.625 10
      vertex 79.375 0.625 15
      vertex 79.375 0.625 10
    endloop
  endfacet
  facet normal 0 1 0
    outer loop
      vertex 79.375 0.625 15
      vertex 60 0.625 10
      vertex 55 0.625 15
    endloop
  endfacet
  facet normal 0 1 0
    outer loop
      vertex 55 0.625 15
      vertex 60 0.625 10
      vertex 55 0.625 10
    endloop
  endfacet
  facet normal 0 1 0
    outer loop
      vertex 15 0.625 10
      vertex 20 0.625 15
      vertex 20 0.625 10
    endloop
  endfacet
  facet normal 0 1 0
    outer loop
      vertex 20 0.625 15
      vertex 15 0.625 10
      vertex 0.625 0.625 15
    endloop
  endfacet
  facet normal 0 1 0
    outer loop
      vertex 0.625 0.625 15
      vertex 15 0.625 10
      vertex 0.625 0.625 10
    endloop
  endfacet
  facet normal 0 1 -0
    outer loop
      vertex 50 0.625 10
      vertex 25 0.625 15
      vertex 50 0.625 15
    endloop
  endfacet
  facet normal 0 1 0
    outer loop
      vertex 25 0.625 15
      vertex 50 0.625 10
      vertex 25 0.625 10
    endloop
  endfacet
  facet normal 0 -1 0
    outer loop
      vertex 0.625 79.375 10
      vertex 79.375 79.375 15
      vertex 0.625 79.375 15
    endloop
  endfacet
  facet normal 0 -1 -0
    outer loop
      vertex 79.375 79.375 15
      vertex 0.625 79.375 10
      vertex 79.375 79.375 10
    endloop
  endfacet
  facet normal 0 1 -0
    outer loop
      vertex 78.625 78.625 10
      vertex 1.375 78.625 15
      vertex 78.625 78.625 15
    endloop
  endfacet
  facet normal 0 1 0
    outer loop
      vertex 1.375 78.625 15
      vertex 78.625 78.625 10
      vertex 1.375 78.625 10
    endloop
  endfacet
  facet normal -1 0 0
    outer loop
      vertex 1.375 1.375 10
      vertex 1.375 78.625 15
      vertex 1.375 78.625 10
    endloop
  endfacet
  facet normal -1 -0 0
    outer loop
      vertex 1.375 78.625 15
      vertex 1.375 1.375 10
      vertex 1.375 1.375 15
    endloop
  endfacet
  facet normal 1 -0 0
    outer loop
      vertex 78.625 1.375 15
      vertex 78.625 78.625 10
      vertex 78.625 78.625 15
    endloop
  endfacet
  facet normal 1 0 0
    outer loop
      vertex 78.625 78.625 10
      vertex 78.625 1.375 15
      vertex 78.625 1.375 10
    endloop
  endfacet
  facet normal 1 -0 0
    outer loop
      vertex 80 0 15
      vertex 80 80 0
      vertex 80 80 15
    endloop
  endfacet
  facet normal 1 0 0
    outer loop
      vertex 80 80 0
      vertex 80 0 15
      vertex 80 0 0
    endloop
  endfacet
  facet normal 0 0 1
    outer loop
      vertex 80 80 15
      vertex 79.375 79.375 15
      vertex 80 0 15
    endloop
  endfacet
  facet normal 0 0 1
    outer loop
      vertex 80 80 15
      vertex 0.625 79.375 15
      vertex 79.375 79.375 15
    endloop
  endfacet
  facet normal 0 0 1
    outer loop
      vertex 0.625 79.375 15
      vertex 0 80 15
      vertex 0.625 0.625 15
    endloop
  endfacet
  facet normal -0 0 1
    outer loop
      vertex 0 80 15
      vertex 0.625 79.375 15
      vertex 80 80 15
    endloop
  endfacet
  facet normal -0 0 1
    outer loop
      vertex 79.375 0.625 15
      vertex 80 0 15
      vertex 79.375 79.375 15
    endloop
  endfacet
  facet normal 0 0 1
    outer loop
      vertex 55 0 15
      vertex 79.375 0.625 15
      vertex 55 0.625 15
    endloop
  endfacet
  facet normal 0 0 1
    outer loop
      vertex 79.375 0.625 15
      vertex 55 0 15
      vertex 80 0 15
    endloop
  endfacet
  facet normal -0 0 1
    outer loop
      vertex 0.625 0.625 15
      vertex 20 0 15
      vertex 20 0.625 15
    endloop
  endfacet
  facet normal 0 0 1
    outer loop
      vertex 0.625 0.625 15
      vertex 0 0 15
      vertex 20 0 15
    endloop
  endfacet
  facet normal 0 0 1
    outer loop
      vertex 0 0 15
      vertex 0.625 0.625 15
      vertex 0 80 15
    endloop
  endfacet
  facet normal 0 0 1
    outer loop
      vertex 78.625 78.625 15
      vertex 78 78 15
      vertex 78.625 1.375 15
    endloop
  endfacet
  facet normal 0 0 1
    outer loop
      vertex 78.625 78.625 15
      vertex 2 78 15
      vertex 78 78 15
    endloop
  endfacet
  facet normal 0 0 1
    outer loop
      vertex 2 78 15
      vertex 1.375 78.625 15
      vertex 2 2 15
    endloop
  endfacet
  facet normal -0 0 1
    outer loop
      vertex 1.375 78.625 15
      vertex 2 78 15
      vertex 78.625 78.625 15
    endloop
  endfacet
  facet normal -0 0 1
    outer loop
      vertex 78 2 15
      vertex 78.625 1.375 15
      vertex 78 78 15
    endloop
  endfacet
  facet normal 0 0 1
    outer loop
      vertex 55 1.375 15
      vertex 78 2 15
      vertex 55 2 15
    endloop
  endfacet
  facet normal 0 0 1
    outer loop
      vertex 78 2 15
      vertex 55 1.375 15
      vertex 78.625 1.375 15
    endloop
  endfacet
  facet normal -0 0 1
    outer loop
      vertex 2 2 15
      vertex 20 1.375 15
      vertex 20 2 15
    endloop
  endfacet
  facet normal 0 0 1
    outer loop
      vertex 2 2 15
      vertex 1.375 1.375 15
      vertex 20 1.375 15
    endloop
  endfacet
  facet normal 0 0 1
    outer loop
      vertex 1.375 1.375 15
      vertex 2 2 15
      vertex 1.375 78.625 15
    endloop
  endfacet
  facet normal -0 0 1
    outer loop
      vertex 25 0.625 15
      vertex 50 0 15
      vertex 50 0.625 15
    endloop
  endfacet
  facet normal 0 0 1
    outer loop
      vertex 50 0 15
      vertex 25 0.625 15
      vertex 25 0 15
    endloop
  endfacet
  facet normal -0 0 1
    outer loop
      vertex 25 2 15
      vertex 50 1.375 15
      vertex 50 2 15
    endloop
  endfacet
  facet normal 0 0 1
    outer loop
      vertex 50 1.375 15
      vertex 25 2 15
      vertex 25 1.375 15
    endloop
  endfacet
  facet normal 0 0 -1
    outer loop
      vertex 0 0 0
      vertex 80 80 0
      vertex 80 0 0
    endloop
  endfacet
  facet normal -0 0 -1
    outer loop
      vertex 80 80 0
      vertex 0 0 0
      vertex 0 80 0
    endloop
  endfacet
  facet normal -1 0 0
    outer loop
      vertex 0 0 0
      vertex 0 80 15
      vertex 0 80 0
    endloop
  endfacet
  facet normal -1 -0 0
    outer loop
      vertex 0 80 15
      vertex 0 0 0
      vertex 0 0 15
    endloop
  endfacet
  facet normal 0 1 -0
    outer loop
      vertex 80 80 0
      vertex 0 80 15
      vertex 80 80 15
    endloop
  endfacet
  facet normal 0 1 0
    outer loop
      vertex 0 80 15
      vertex 80 80 0
      vertex 0 80 0
    endloop
  endfacet
  facet normal 0 -1 0
    outer loop
      vertex 0 0 15
      vertex 15 0 10
      vertex 20 0 15
    endloop
  endfacet
  facet normal 0 -1 0
    outer loop
      vertex 0 0 15
      vertex 15 0 5
      vertex 15 0 10
    endloop
  endfacet
  facet normal 0 -1 0
    outer loop
      vertex 0 0 0
      vertex 25 0 5
      vertex 15 0 5
    endloop
  endfacet
  facet normal 0 -1 -0
    outer loop
      vertex 25 0 5
      vertex 0 0 0
      vertex 50 0 5
    endloop
  endfacet
  facet normal 0 -1 0
    outer loop
      vertex 80 0 0
      vertex 50 0 5
      vertex 0 0 0
    endloop
  endfacet
  facet normal 0 -1 0
    outer loop
      vertex 0 0 0
      vertex 15 0 5
      vertex 0 0 15
    endloop
  endfacet
  facet normal 0 -1 -0
    outer loop
      vertex 20 0 15
      vertex 15 0 10
      vertex 20 0 10
    endloop
  endfacet
  facet normal 0 -1 0
    outer loop
      vertex 25 0 5
      vertex 50 0 15
      vertex 25 0 15
    endloop
  endfacet
  facet normal 0 -1 -0
    outer loop
      vertex 50 0 15
      vertex 25 0 5
      vertex 50 0 5
    endloop
  endfacet
  facet normal 0 -1 0
    outer loop
      vertex 60 0 10
      vertex 55 0 15
      vertex 55 0 10
    endloop
  endfacet
  facet normal 0 -1 0
    outer loop
      vertex 55 0 15
      vertex 60 0 10
      vertex 80 0 15
    endloop
  endfacet
  facet normal 0 -1 0
    outer loop
      vertex 60 0 5
      vertex 80 0 15
      vertex 60 0 10
    endloop
  endfacet
  facet normal 0 -1 0
    outer loop
      vertex 60 0 5
      vertex 80 0 0
      vertex 80 0 15
    endloop
  endfacet
  facet normal 0 -1 0
    outer loop
      vertex 50 0 5
      vertex 80 0 0
      vertex 60 0 5
    endloop
  endfacet
  facet normal -1 0 0
    outer loop
      vertex 78 2 2
      vertex 78 78 15
      vertex 78 78 2
    endloop
  endfacet
  facet normal -1 -0 0
    outer loop
      vertex 78 78 15
      vertex 78 2 2
      vertex 78 2 15
    endloop
  endfacet
  facet normal 0 0 1
    outer loop
      vertex 78 78 2
      vertex 42 42 2
      vertex 78 2 2
    endloop
  endfacet
  facet normal 0 0 1
    outer loop
      vertex 78 78 2
      vertex 38 42 2
      vertex 42 42 2
    endloop
  endfacet
  facet normal 0 0 1
    outer loop
      vertex 38 42 2
      vertex 2 78 2
      vertex 38 38 2
    endloop
  endfacet
  facet normal -0 0 1
    outer loop
      vertex 2 78 2
      vertex 38 42 2
      vertex 78 78 2
    endloop
  endfacet
  facet normal -0 0 1
    outer loop
      vertex 42 38 2
      vertex 78 2 2
      vertex 42 42 2
    endloop
  endfacet
  facet normal -0 0 1
    outer loop
      vertex 38 38 2
      vertex 78 2 2
      vertex 42 38 2
    endloop
  endfacet
  facet normal 0 0 1
    outer loop
      vertex 38 38 2
      vertex 2 2 2
      vertex 78 2 2
    endloop
  endfacet
  facet normal 0 0 1
    outer loop
      vertex 2 2 2
      vertex 38 38 2
      vertex 2 78 2
    endloop
  endfacet
  facet normal 1 -0 0
    outer loop
      vertex 2 2 15
      vertex 2 78 2
      vertex 2 78 15
    endloop
  endfacet
  facet normal 1 0 0
    outer loop
      vertex 2 78 2
      vertex 2 2 15
      vertex 2 2 2
    endloop
  endfacet
  facet normal 0 -1 0
    outer loop
      vertex 2 78 2
      vertex 78 78 15
      vertex 2 78 15
    endloop
  endfacet
  facet normal 0 -1 -0
    outer loop
      vertex 78 78 15
      vertex 2 78 2
      vertex 78 78 2
    endloop
  endfacet
  facet normal 0 1 0
    outer loop
      vertex 78 2 15
      vertex 60 2 10
      vertex 55 2 15
    endloop
  endfacet
  facet normal 0 1 -0
    outer loop
      vertex 78 2 2
      vertex 60 2 10
      vertex 78 2 15
    endloop
  endfacet
  facet normal 0 1 0
    outer loop
      vertex 78 2 2
      vertex 50 2 5
      vertex 60 2 5
    endloop
  endfacet
  facet normal 0 1 0
    outer loop
      vertex 2 2 2
      vertex 50 2 5
      vertex 78 2 2
    endloop
  endfacet
  facet normal 0 1 0
    outer loop
      vertex 50 2 5
      vertex 2 2 2
      vertex 25 2 5
    endloop
  endfacet
  facet normal 0 1 0
    outer loop
      vertex 60 2 10
      vertex 78 2 2
      vertex 60 2 5
    endloop
  endfacet
  facet normal 0 1 0
    outer loop
      vertex 55 2 15
      vertex 60 2 10
      vertex 55 2 10
    endloop
  endfacet
  facet normal 0 1 -0
    outer loop
      vertex 50 2 5
      vertex 25 2 15
      vertex 50 2 15
    endloop
  endfacet
  facet normal 0 1 0
    outer loop
      vertex 25 2 15
      vertex 50 2 5
      vertex 25 2 5
    endloop
  endfacet
  facet normal 0 1 0
    outer loop
      vertex 15 2 10
      vertex 20 2 15
      vertex 20 2 10
    endloop
  endfacet
  facet normal 0 1 0
    outer loop
      vertex 20 2 15
      vertex 15 2 10
      vertex 2 2 15
    endloop
  endfacet
  facet normal 0 1 0
    outer loop
      vertex 2 2 2
      vertex 15 2 10
      vertex 15 2 5
    endloop
  endfacet
  facet normal 0 1 0
    outer loop
      vertex 15 2 10
      vertex 2 2 2
      vertex 2 2 15
    endloop
  endfacet
  facet normal 0 1 0
    outer loop
      vertex 25 2 5
      vertex 2 2 2
      vertex 15 2 5
    endloop
  endfacet
  facet normal -1 0 0
    outer loop
      vertex 25 2 5
      vertex 25 1.375 10
      vertex 25 2 15
    endloop
  endfacet
  facet normal -1 0 0
    outer loop
      vertex 25 2 5
      vertex 25 0.625 10
      vertex 25 1.375 10
    endloop
  endfacet
  facet normal -1 0 0
    outer loop
      vertex 25 0 5
      vertex 25 0.625 10
      vertex 25 2 5
    endloop
  endfacet
  facet normal -1 0 0
    outer loop
      vertex 25 0 15
      vertex 25 0.625 10
      vertex 25 0 5
    endloop
  endfacet
  facet normal -1 0 0
    outer loop
      vertex 25 0.625 10
      vertex 25 0 15
      vertex 25 0.625 15
    endloop
  endfacet
  facet normal -1 -0 0
    outer loop
      vertex 25 2 15
      vertex 25 1.375 10
      vertex 25 1.375 15
    endloop
  endfacet
  facet normal -0 0 1
    outer loop
      vertex 15 2 5
      vertex 25 0 5
      vertex 25 2 5
    endloop
  endfacet
  facet normal 0 0 1
    outer loop
      vertex 25 0 5
      vertex 15 2 5
      vertex 15 0 5
    endloop
  endfacet
  facet normal 1 -0 0
    outer loop
      vertex 15 1.375 10
      vertex 15 2 5
      vertex 15 2 10
    endloop
  endfacet
  facet normal 1 -0 0
    outer loop
      vertex 15 0.625 10
      vertex 15 2 5
      vertex 15 1.375 10
    endloop
  endfacet
  facet normal 1 0 0
    outer loop
      vertex 15 0 5
      vertex 15 0.625 10
      vertex 15 0 10
    endloop
  endfacet
  facet normal 1 0 0
    outer loop
      vertex 15 0.625 10
      vertex 15 0 5
      vertex 15 2 5
    endloop
  endfacet
  facet normal 1 -0 0
    outer loop
      vertex 20 0 15
      vertex 20 0.625 10
      vertex 20 0.625 15
    endloop
  endfacet
  facet normal 1 0 0
    outer loop
      vertex 20 0.625 10
      vertex 20 0 15
      vertex 20 0 10
    endloop
  endfacet
  facet normal 1 -0 0
    outer loop
      vertex 20 1.375 15
      vertex 20 2 10
      vertex 20 2 15
    endloop
  endfacet
  facet normal 1 0 0
    outer loop
      vertex 20 2 10
      vertex 20 1.375 15
      vertex 20 1.375 10
    endloop
  endfacet
  facet normal -1 0 0
    outer loop
      vertex 60 2 5
      vertex 60 1.375 10
      vertex 60 2 10
    endloop
  endfacet
  facet normal -1 0 0
    outer loop
      vertex 60 2 5
      vertex 60 0.625 10
      vertex 60 1.375 10
    endloop
  endfacet
  facet normal -1 0 0
    outer loop
      vertex 60 0 5
      vertex 60 0.625 10
      vertex 60 2 5
    endloop
  endfacet
  facet normal -1 -0 0
    outer loop
      vertex 60 0.625 10
      vertex 60 0 5
      vertex 60 0 10
    endloop
  endfacet
  facet normal -0 0 1
    outer loop
      vertex 50 2 5
      vertex 60 0 5
      vertex 60 2 5
    endloop
  endfacet
  facet normal 0 0 1
    outer loop
      vertex 60 0 5
      vertex 50 2 5
      vertex 50 0 5
    endloop
  endfacet
  facet normal 1 0 0
    outer loop
      vertex 50 0.625 15
      vertex 50 0 15
      vertex 50 0.625 10
    endloop
  endfacet
  facet normal 1 0 0
    outer loop
      vertex 50 1.375 10
      vertex 50 2 15
      vertex 50 1.375 15
    endloop
  endfacet
  facet normal 1 0 0
    outer loop
      vertex 50 2 15
      vertex 50 1.375 10
      vertex 50 2 5
    endloop
  endfacet
  facet normal 1 -0 0
    outer loop
      vertex 50 0.625 10
      vertex 50 2 5
      vertex 50 1.375 10
    endloop
  endfacet
  facet normal 1 0 0
    outer loop
      vertex 50 0.625 10
      vertex 50 0 5
      vertex 50 2 5
    endloop
  endfacet
  facet normal 1 0 0
    outer loop
      vertex 50 0 5
      vertex 50 0.625 10
      vertex 50 0 15
    endloop
  endfacet
  facet normal -1 0 0
    outer loop
      vertex 55 0 10
      vertex 55 0.625 15
      vertex 55 0.625 10
    endloop
  endfacet
  facet normal -1 -0 0
    outer loop
      vertex 55 0.625 15
      vertex 55 0 10
      vertex 55 0 15
    endloop
  endfacet
  facet normal -1 0 0
    outer loop
      vertex 55 1.375 10
      vertex 55 2 15
      vertex 55 2 10
    endloop
  endfacet
  facet normal -1 -0 0
    outer loop
      vertex 55 2 15
      vertex 55 1.375 10
      vertex 55 1.375 15
    endloop
  endfacet
  facet normal 1 -0 0
    outer loop
      vertex 175 0 2
      vertex 175 80 0
      vertex 175 80 2
    endloop
  endfacet
  facet normal 1 0 0
    outer loop
      vertex 175 80 0
      vertex 175 0 2
      vertex 175 0 0
    endloop
  endfacet
  facet normal 0 0 1
    outer loop
      vertex 173.75 78.75 2
      vertex 137 42 2
      vertex 173.75 1.25 2
    endloop
  endfacet
  facet normal 0 0 1
    outer loop
      vertex 173.75 78.75 2
      vertex 133 42 2
      vertex 137 42 2
    endloop
  endfacet
  facet normal 0 0 1
    outer loop
      vertex 133 42 2
      vertex 96.25 78.75 2
      vertex 133 38 2
    endloop
  endfacet
  facet normal -0 0 1
    outer loop
      vertex 96.25 78.75 2
      vertex 133 42 2
      vertex 173.75 78.75 2
    endloop
  endfacet
  facet normal -0 0 1
    outer loop
      vertex 137 38 2
      vertex 173.75 1.25 2
      vertex 137 42 2
    endloop
  endfacet
  facet normal -0 0 1
    outer loop
      vertex 133 38 2
      vertex 173.75 1.25 2
      vertex 137 38 2
    endloop
  endfacet
  facet normal 0 0 1
    outer loop
      vertex 133 38 2
      vertex 96.25 1.25 2
      vertex 173.75 1.25 2
    endloop
  endfacet
  facet normal 0 0 1
    outer loop
      vertex 96.25 1.25 2
      vertex 133 38 2
      vertex 96.25 78.75 2
    endloop
  endfacet
  facet normal 0 0 1
    outer loop
      vertex 175 80 2
      vertex 174.25 79.25 2
      vertex 175 0 2
    endloop
  endfacet
  facet normal 0 0 1
    outer loop
      vertex 175 80 2
      vertex 95.75 79.25 2
      vertex 174.25 79.25 2
    endloop
  endfacet
  facet normal 0 0 1
    outer loop
      vertex 95.75 79.25 2
      vertex 95 80 2
      vertex 95.75 0.75 2
    endloop
  endfacet
  facet normal -0 0 1
    outer loop
      vertex 95 80 2
      vertex 95.75 79.25 2
      vertex 175 80 2
    endloop
  endfacet
  facet normal -0 0 1
    outer loop
      vertex 174.25 0.75 2
      vertex 175 0 2
      vertex 174.25 79.25 2
    endloop
  endfacet
  facet normal -0 0 1
    outer loop
      vertex 95.75 0.75 2
      vertex 175 0 2
      vertex 174.25 0.75 2
    endloop
  endfacet
  facet normal 0 0 1
    outer loop
      vertex 95.75 0.75 2
      vertex 95 0 2
      vertex 175 0 2
    endloop
  endfacet
  facet normal 0 0 1
    outer loop
      vertex 95 0 2
      vertex 95.75 0.75 2
      vertex 95 80 2
    endloop
  endfacet
  facet normal 0 0 -1
    outer loop
      vertex 175 0 0
      vertex 137 38 0
      vertex 175 80 0
    endloop
  endfacet
  facet normal 0 0 -1
    outer loop
      vertex 175 0 0
      vertex 133 38 0
      vertex 137 38 0
    endloop
  endfacet
  facet normal -0 0 -1
    outer loop
      vertex 133 38 0
      vertex 95 0 0
      vertex 133 42 0
    endloop
  endfacet
  facet normal 0 0 -1
    outer loop
      vertex 95 0 0
      vertex 133 38 0
      vertex 175 0 0
    endloop
  endfacet
  facet normal 0 0 -1
    outer loop
      vertex 137 42 0
      vertex 175 80 0
      vertex 137 38 0
    endloop
  endfacet
  facet normal 0 0 -1
    outer loop
      vertex 133 42 0
      vertex 175 80 0
      vertex 137 42 0
    endloop
  endfacet
  facet normal 0 0 -1
    outer loop
      vertex 133 42 0
      vertex 95 80 0
      vertex 175 80 0
    endloop
  endfacet
  facet normal 0 0 -1
    outer loop
      vertex 95 80 0
      vertex 133 42 0
      vertex 95 0 0
    endloop
  endfacet
  facet normal -1 0 0
    outer loop
      vertex 95 0 0
      vertex 95 80 2
      vertex 95 80 0
    endloop
  endfacet
  facet normal -1 -0 0
    outer loop
      vertex 95 80 2
      vertex 95 0 0
      vertex 95 0 2
    endloop
  endfacet
  facet normal 0 1 -0
    outer loop
      vertex 175 80 0
      vertex 95 80 2
      vertex 175 80 2
    endloop
  endfacet
  facet normal 0 1 0
    outer loop
      vertex 95 80 2
      vertex 175 80 0
      vertex 95 80 0
    endloop
  endfacet
  facet normal 0 -1 0
    outer loop
      vertex 95 0 0
      vertex 175 0 2
      vertex 95 0 2
    endloop
  endfacet
  facet normal 0 -1 -0
    outer loop
      vertex 175 0 2
      vertex 95 0 0
      vertex 175 0 0
    endloop
  endfacet
  facet normal -1 0 0
    outer loop
      vertex 137 38 0
      vertex 137 42 2
      vertex 137 42 0
    endloop
  endfacet
  facet normal -1 -0 0
    outer loop
      vertex 137 42 2
      vertex 137 38 0
      vertex 137 38 2
    endloop
  endfacet
  facet normal 1 -0 0
    outer loop
      vertex 133 38 2
      vertex 133 42 0
      vertex 133 42 2
    endloop
  endfacet
  facet normal 1 0 0
    outer loop
      vertex 133 42 0
      vertex 133 38 2
      vertex 133 38 0
    endloop
  endfacet
  facet normal 0 -1 0
    outer loop
      vertex 133 42 0
      vertex 137 42 2
      vertex 133 42 2
    endloop
  endfacet
  facet normal 0 -1 -0
    outer loop
      vertex 137 42 2
      vertex 133 42 0
      vertex 137 42 0
    endloop
  endfacet
  facet normal 0 1 -0
    outer loop
      vertex 137 38 0
      vertex 133 38 2
      vertex 137 38 2
    endloop
  endfacet
  facet normal 0 1 0
    outer loop
      vertex 133 38 2
      vertex 137 38 0
      vertex 133 38 0
    endloop
  endfacet
  facet normal 1 -0 0
    outer loop
      vertex 174.25 0.75 7
      vertex 174.25 79.25 2
      vertex 174.25 79.25 7
    endloop
  endfacet
  facet normal 1 0 0
    outer loop
      vertex 174.25 79.25 2
      vertex 174.25 0.75 7
      vertex 174.25 0.75 2
    endloop
  endfacet
  facet normal 0 0 1
    outer loop
      vertex 174.25 79.25 7
      vertex 173.75 78.75 7
      vertex 174.25 0.75 7
    endloop
  endfacet
  facet normal 0 0 1
    outer loop
      vertex 174.25 79.25 7
      vertex 96.25 78.75 7
      vertex 173.75 78.75 7
    endloop
  endfacet
  facet normal 0 0 1
    outer loop
      vertex 96.25 78.75 7
      vertex 95.75 79.25 7
      vertex 96.25 1.25 7
    endloop
  endfacet
  facet normal -0 0 1
    outer loop
      vertex 95.75 79.25 7
      vertex 96.25 78.75 7
      vertex 174.25 79.25 7
    endloop
  endfacet
  facet normal -0 0 1
    outer loop
      vertex 173.75 1.25 7
      vertex 174.25 0.75 7
      vertex 173.75 78.75 7
    endloop
  endfacet
  facet normal -0 0 1
    outer loop
      vertex 96.25 1.25 7
      vertex 174.25 0.75 7
      vertex 173.75 1.25 7
    endloop
  endfacet
  facet normal 0 0 1
    outer loop
      vertex 96.25 1.25 7
      vertex 95.75 0.75 7
      vertex 174.25 0.75 7
    endloop
  endfacet
  facet normal 0 0 1
    outer loop
      vertex 95.75 0.75 7
      vertex 96.25 1.25 7
      vertex 95.75 79.25 7
    endloop
  endfacet
  facet normal -1 0 0
    outer loop
      vertex 95.75 0.75 2
      vertex 95.75 79.25 7
      vertex 95.75 79.25 2
    endloop
  endfacet
  facet normal -1 -0 0
    outer loop
      vertex 95.75 79.25 7
      vertex 95.75 0.75 2
      vertex 95.75 0.75 7
    endloop
  endfacet
  facet normal 0 1 -0
    outer loop
      vertex 173.75 1.25 2
      vertex 96.25 1.25 7
      vertex 173.75 1.25 7
    endloop
  endfacet
  facet normal 0 1 0
    outer loop
      vertex 96.25 1.25 7
      vertex 173.75 1.25 2
      vertex 96.25 1.25 2
    endloop
  endfacet
  facet normal 0 -1 0
    outer loop
      vertex 95.75 0.75 2
      vertex 174.25 0.75 7
      vertex 95.75 0.75 7
    endloop
  endfacet
  facet normal 0 -1 -0
    outer loop
      vertex 174.25 0.75 7
      vertex 95.75 0.75 2
      vertex 174.25 0.75 2
    endloop
  endfacet
  facet normal 0 1 -0
    outer loop
      vertex 174.25 79.25 2
      vertex 95.75 79.25 7
      vertex 174.25 79.25 7
    endloop
  endfacet
  facet normal 0 1 0
    outer loop
      vertex 95.75 79.25 7
      vertex 174.25 79.25 2
      vertex 95.75 79.25 2
    endloop
  endfacet
  facet normal 0 -1 0
    outer loop
      vertex 96.25 78.75 2
      vertex 173.75 78.75 7
      vertex 96.25 78.75 7
    endloop
  endfacet
  facet normal 0 -1 -0
    outer loop
      vertex 173.75 78.75 7
      vertex 96.25 78.75 2
      vertex 173.75 78.75 2
    endloop
  endfacet
  facet normal 1 -0 0
    outer loop
      vertex 96.25 1.25 7
      vertex 96.25 78.75 2
      vertex 96.25 78.75 7
    endloop
  endfacet
  facet normal 1 0 0
    outer loop
      vertex 96.25 78.75 2
      vertex 96.25 1.25 7
      vertex 96.25 1.25 2
    endloop
  endfacet
  facet normal -1 0 0
    outer loop
      vertex 173.75 1.25 2
      vertex 173.75 78.75 7
      vertex 173.75 78.75 2
    endloop
  endfacet
  facet normal -1 -0 0
    outer loop
      vertex 173.75 78.75 7
      vertex 173.75 1.25 2
      vertex 173.75 1.25 7
    endloop
  endfacet
  facet normal 1 -0 0
    outer loop
      vertex 42 38 15
      vertex 42 42 2
      vertex 42 42 15
    endloop
  endfacet
  facet normal 1 0 0
    outer loop
      vertex 42 42 2
      vertex 42 38 15
      vertex 42 38 2
    endloop
  endfacet
  facet normal -0 0 1
    outer loop
      vertex 38 42 15
      vertex 42 38 15
      vertex 42 42 15
    endloop
  endfacet
  facet normal 0 0 1
    outer loop
      vertex 42 38 15
      vertex 38 42 15
      vertex 38 38 15
    endloop
  endfacet
  facet normal -1 0 0
    outer loop
      vertex 38 38 2
      vertex 38 42 15
      vertex 38 42 2
    endloop
  endfacet
  facet normal -1 -0 0
    outer loop
      vertex 38 42 15
      vertex 38 38 2
      vertex 38 38 15
    endloop
  endfacet
  facet normal 0 1 -0
    outer loop
      vertex 42 42 2
      vertex 38 42 15
      vertex 42 42 15
    endloop
  endfacet
  facet normal 0 1 0
    outer loop
      vertex 38 42 15
      vertex 42 42 2
      vertex 38 42 2
    endloop
  endfacet
  facet normal 0 -1 0
    outer loop
      vertex 38 38 2
      vertex 42 38 15
      vertex 38 38 15
    endloop
  endfacet
  facet normal 0 -1 -0
    outer loop
      vertex 42 38 15
      vertex 38 38 2
      vertex 42 38 2
    endloop
  endfacet
endsolid OpenSCAD_Model
