solid OpenSCAD_Model
  facet normal 1 -0 0
    outer loop
      vertex 80 0 10
      vertex 80 80 0
      vertex 80 80 10
    endloop
  endfacet
  facet normal 1 0 0
    outer loop
      vertex 80 80 0
      vertex 80 0 10
      vertex 80 0 0
    endloop
  endfacet
  facet normal 0 0 1
    outer loop
      vertex 80 80 10
      vertex 78.5 78.5 10
      vertex 80 0 10
    endloop
  endfacet
  facet normal 0 0 1
    outer loop
      vertex 80 80 10
      vertex 1.5 78.5 10
      vertex 78.5 78.5 10
    endloop
  endfacet
  facet normal 0 0 1
    outer loop
      vertex 1.5 78.5 10
      vertex 0 80 10
      vertex 1.5 1.5 10
    endloop
  endfacet
  facet normal -0 0 1
    outer loop
      vertex 0 80 10
      vertex 1.5 78.5 10
      vertex 80 80 10
    endloop
  endfacet
  facet normal -0 0 1
    outer loop
      vertex 78.5 1.5 10
      vertex 80 0 10
      vertex 78.5 78.5 10
    endloop
  endfacet
  facet normal 0 0 1
    outer loop
      vertex 65 0 10
      vertex 78.5 1.5 10
      vertex 65 1.5 10
    endloop
  endfacet
  facet normal 0 0 1
    outer loop
      vertex 78.5 1.5 10
      vertex 65 0 10
      vertex 80 0 10
    endloop
  endfacet
  facet normal -0 0 1
    outer loop
      vertex 1.5 1.5 10
      vertex 15 0 10
      vertex 15 1.5 10
    endloop
  endfacet
  facet normal 0 0 1
    outer loop
      vertex 1.5 1.5 10
      vertex 0 0 10
      vertex 15 0 10
    endloop
  endfacet
  facet normal 0 0 1
    outer loop
      vertex 0 0 10
      vertex 1.5 1.5 10
      vertex 0 80 10
    endloop
  endfacet
  facet normal -0 0 1
    outer loop
      vertex 20 1.5 10
      vertex 60 0 10
      vertex 60 1.5 10
    endloop
  endfacet
  facet normal 0 0 1
    outer loop
      vertex 60 0 10
      vertex 20 1.5 10
      vertex 20 0 10
    endloop
  endfacet
  facet normal 0 0 -1
    outer loop
      vertex 0 0 0
      vertex 80 80 0
      vertex 80 0 0
    endloop
  endfacet
  facet normal -0 0 -1
    outer loop
      vertex 80 80 0
      vertex 0 0 0
      vertex 0 80 0
    endloop
  endfacet
  facet normal -1 0 0
    outer loop
      vertex 0 0 0
      vertex 0 80 10
      vertex 0 80 0
    endloop
  endfacet
  facet normal -1 -0 0
    outer loop
      vertex 0 80 10
      vertex 0 0 0
      vertex 0 0 10
    endloop
  endfacet
  facet normal 0 1 -0
    outer loop
      vertex 80 80 0
      vertex 0 80 10
      vertex 80 80 10
    endloop
  endfacet
  facet normal 0 1 0
    outer loop
      vertex 0 80 10
      vertex 80 80 0
      vertex 0 80 0
    endloop
  endfacet
  facet normal 0 -1 0
    outer loop
      vertex 0 0 10
      vertex 10 0 7.5
      vertex 15 0 10
    endloop
  endfacet
  facet normal 0 -1 0
    outer loop
      vertex 0 0 10
      vertex 10 0 2.5
      vertex 10 0 7.5
    endloop
  endfacet
  facet normal 0 -1 0
    outer loop
      vertex 0 0 0
      vertex 20 0 2.5
      vertex 10 0 2.5
    endloop
  endfacet
  facet normal 0 -1 -0
    outer loop
      vertex 20 0 2.5
      vertex 0 0 0
      vertex 60 0 2.5
    endloop
  endfacet
  facet normal 0 -1 0
    outer loop
      vertex 80 0 0
      vertex 60 0 2.5
      vertex 0 0 0
    endloop
  endfacet
  facet normal 0 -1 0
    outer loop
      vertex 0 0 0
      vertex 10 0 2.5
      vertex 0 0 10
    endloop
  endfacet
  facet normal 0 -1 -0
    outer loop
      vertex 15 0 10
      vertex 10 0 7.5
      vertex 15 0 7.5
    endloop
  endfacet
  facet normal 0 -1 0
    outer loop
      vertex 20 0 2.5
      vertex 60 0 10
      vertex 20 0 10
    endloop
  endfacet
  facet normal 0 -1 -0
    outer loop
      vertex 60 0 10
      vertex 20 0 2.5
      vertex 60 0 2.5
    endloop
  endfacet
  facet normal 0 -1 0
    outer loop
      vertex 70 0 7.5
      vertex 65 0 10
      vertex 65 0 7.5
    endloop
  endfacet
  facet normal 0 -1 0
    outer loop
      vertex 65 0 10
      vertex 70 0 7.5
      vertex 80 0 10
    endloop
  endfacet
  facet normal 0 -1 0
    outer loop
      vertex 70 0 2.5
      vertex 80 0 10
      vertex 70 0 7.5
    endloop
  endfacet
  facet normal 0 -1 0
    outer loop
      vertex 70 0 2.5
      vertex 80 0 0
      vertex 80 0 10
    endloop
  endfacet
  facet normal 0 -1 0
    outer loop
      vertex 60 0 2.5
      vertex 80 0 0
      vertex 70 0 2.5
    endloop
  endfacet
  facet normal -1 0 0
    outer loop
      vertex 78.5 1.5 1.5
      vertex 78.5 78.5 10
      vertex 78.5 78.5 1.5
    endloop
  endfacet
  facet normal -1 -0 0
    outer loop
      vertex 78.5 78.5 10
      vertex 78.5 1.5 1.5
      vertex 78.5 1.5 10
    endloop
  endfacet
  facet normal -0 0 1
    outer loop
      vertex 1.5 78.5 1.5
      vertex 78.5 1.5 1.5
      vertex 78.5 78.5 1.5
    endloop
  endfacet
  facet normal 0 0 1
    outer loop
      vertex 78.5 1.5 1.5
      vertex 1.5 78.5 1.5
      vertex 1.5 1.5 1.5
    endloop
  endfacet
  facet normal 1 -0 0
    outer loop
      vertex 1.5 1.5 10
      vertex 1.5 78.5 1.5
      vertex 1.5 78.5 10
    endloop
  endfacet
  facet normal 1 0 0
    outer loop
      vertex 1.5 78.5 1.5
      vertex 1.5 1.5 10
      vertex 1.5 1.5 1.5
    endloop
  endfacet
  facet normal 0 -1 0
    outer loop
      vertex 1.5 78.5 1.5
      vertex 78.5 78.5 10
      vertex 1.5 78.5 10
    endloop
  endfacet
  facet normal 0 -1 -0
    outer loop
      vertex 78.5 78.5 10
      vertex 1.5 78.5 1.5
      vertex 78.5 78.5 1.5
    endloop
  endfacet
  facet normal 0 1 0
    outer loop
      vertex 78.5 1.5 10
      vertex 70 1.5 7.5
      vertex 65 1.5 10
    endloop
  endfacet
  facet normal 0 1 -0
    outer loop
      vertex 78.5 1.5 1.5
      vertex 70 1.5 7.5
      vertex 78.5 1.5 10
    endloop
  endfacet
  facet normal 0 1 0
    outer loop
      vertex 78.5 1.5 1.5
      vertex 60 1.5 2.5
      vertex 70 1.5 2.5
    endloop
  endfacet
  facet normal 0 1 0
    outer loop
      vertex 60 1.5 2.5
      vertex 78.5 1.5 1.5
      vertex 20 1.5 2.5
    endloop
  endfacet
  facet normal 0 1 0
    outer loop
      vertex 1.5 1.5 1.5
      vertex 20 1.5 2.5
      vertex 78.5 1.5 1.5
    endloop
  endfacet
  facet normal 0 1 0
    outer loop
      vertex 70 1.5 7.5
      vertex 78.5 1.5 1.5
      vertex 70 1.5 2.5
    endloop
  endfacet
  facet normal 0 1 0
    outer loop
      vertex 65 1.5 10
      vertex 70 1.5 7.5
      vertex 65 1.5 7.5
    endloop
  endfacet
  facet normal 0 1 -0
    outer loop
      vertex 60 1.5 2.5
      vertex 20 1.5 10
      vertex 60 1.5 10
    endloop
  endfacet
  facet normal 0 1 0
    outer loop
      vertex 20 1.5 10
      vertex 60 1.5 2.5
      vertex 20 1.5 2.5
    endloop
  endfacet
  facet normal 0 1 0
    outer loop
      vertex 10 1.5 7.5
      vertex 15 1.5 10
      vertex 15 1.5 7.5
    endloop
  endfacet
  facet normal 0 1 0
    outer loop
      vertex 15 1.5 10
      vertex 10 1.5 7.5
      vertex 1.5 1.5 10
    endloop
  endfacet
  facet normal 0 1 0
    outer loop
      vertex 1.5 1.5 1.5
      vertex 10 1.5 7.5
      vertex 10 1.5 2.5
    endloop
  endfacet
  facet normal 0 1 0
    outer loop
      vertex 10 1.5 7.5
      vertex 1.5 1.5 1.5
      vertex 1.5 1.5 10
    endloop
  endfacet
  facet normal 0 1 0
    outer loop
      vertex 20 1.5 2.5
      vertex 1.5 1.5 1.5
      vertex 10 1.5 2.5
    endloop
  endfacet
  facet normal -1 0 0
    outer loop
      vertex 20 0 2.5
      vertex 20 1.5 10
      vertex 20 1.5 2.5
    endloop
  endfacet
  facet normal -1 -0 0
    outer loop
      vertex 20 1.5 10
      vertex 20 0 2.5
      vertex 20 0 10
    endloop
  endfacet
  facet normal 0 0 -1
    outer loop
      vertex 10 0 7.5
      vertex 15 1.5 7.5
      vertex 15 0 7.5
    endloop
  endfacet
  facet normal -0 0 -1
    outer loop
      vertex 15 1.5 7.5
      vertex 10 0 7.5
      vertex 10 1.5 7.5
    endloop
  endfacet
  facet normal -0 0 1
    outer loop
      vertex 10 1.5 2.5
      vertex 20 0 2.5
      vertex 20 1.5 2.5
    endloop
  endfacet
  facet normal 0 0 1
    outer loop
      vertex 20 0 2.5
      vertex 10 1.5 2.5
      vertex 10 0 2.5
    endloop
  endfacet
  facet normal 1 -0 0
    outer loop
      vertex 10 0 7.5
      vertex 10 1.5 2.5
      vertex 10 1.5 7.5
    endloop
  endfacet
  facet normal 1 0 0
    outer loop
      vertex 10 1.5 2.5
      vertex 10 0 7.5
      vertex 10 0 2.5
    endloop
  endfacet
  facet normal 1 -0 0
    outer loop
      vertex 15 0 10
      vertex 15 1.5 7.5
      vertex 15 1.5 10
    endloop
  endfacet
  facet normal 1 0 0
    outer loop
      vertex 15 1.5 7.5
      vertex 15 0 10
      vertex 15 0 7.5
    endloop
  endfacet
  facet normal -1 0 0
    outer loop
      vertex 70 0 2.5
      vertex 70 1.5 7.5
      vertex 70 1.5 2.5
    endloop
  endfacet
  facet normal -1 -0 0
    outer loop
      vertex 70 1.5 7.5
      vertex 70 0 2.5
      vertex 70 0 7.5
    endloop
  endfacet
  facet normal 0 0 -1
    outer loop
      vertex 65 0 7.5
      vertex 70 1.5 7.5
      vertex 70 0 7.5
    endloop
  endfacet
  facet normal -0 0 -1
    outer loop
      vertex 70 1.5 7.5
      vertex 65 0 7.5
      vertex 65 1.5 7.5
    endloop
  endfacet
  facet normal -0 0 1
    outer loop
      vertex 60 1.5 2.5
      vertex 70 0 2.5
      vertex 70 1.5 2.5
    endloop
  endfacet
  facet normal 0 0 1
    outer loop
      vertex 70 0 2.5
      vertex 60 1.5 2.5
      vertex 60 0 2.5
    endloop
  endfacet
  facet normal 1 -0 0
    outer loop
      vertex 60 0 10
      vertex 60 1.5 2.5
      vertex 60 1.5 10
    endloop
  endfacet
  facet normal 1 0 0
    outer loop
      vertex 60 1.5 2.5
      vertex 60 0 10
      vertex 60 0 2.5
    endloop
  endfacet
  facet normal -1 0 0
    outer loop
      vertex 65 0 7.5
      vertex 65 1.5 10
      vertex 65 1.5 7.5
    endloop
  endfacet
  facet normal -1 -0 0
    outer loop
      vertex 65 1.5 10
      vertex 65 0 7.5
      vertex 65 0 10
    endloop
  endfacet
endsolid OpenSCAD_Model
