solid OpenSCAD_Model
  facet normal -1 0 0
    outer loop
      vertex 79 1 8.5
      vertex 79 79 12
      vertex 79 79 8.5
    endloop
  endfacet
  facet normal -1 -0 0
    outer loop
      vertex 79 79 12
      vertex 79 1 8.5
      vertex 79 1 12
    endloop
  endfacet
  facet normal 0 0 -1
    outer loop
      vertex 12 0 8.5
      vertex 17 1 8.5
      vertex 17 0 8.5
    endloop
  endfacet
  facet normal -0 0 -1
    outer loop
      vertex 17 1 8.5
      vertex 12 0 8.5
      vertex 12 1 8.5
    endloop
  endfacet
  facet normal 0 0 -1
    outer loop
      vertex 12 2 8.5
      vertex 17 3 8.5
      vertex 17 2 8.5
    endloop
  endfacet
  facet normal -0 0 -1
    outer loop
      vertex 17 3 8.5
      vertex 12 2 8.5
      vertex 12 3 8.5
    endloop
  endfacet
  facet normal 0 0 -1
    outer loop
      vertex 61 0 8.5
      vertex 66 1 8.5
      vertex 66 0 8.5
    endloop
  endfacet
  facet normal -0 0 -1
    outer loop
      vertex 66 1 8.5
      vertex 61 0 8.5
      vertex 61 1 8.5
    endloop
  endfacet
  facet normal 0 0 -1
    outer loop
      vertex 61 2 8.5
      vertex 66 3 8.5
      vertex 66 2 8.5
    endloop
  endfacet
  facet normal -0 0 -1
    outer loop
      vertex 66 3 8.5
      vertex 61 2 8.5
      vertex 61 3 8.5
    endloop
  endfacet
  facet normal 0 0 1
    outer loop
      vertex 79 79 8.5
      vertex 78 78 8.5
      vertex 79 1 8.5
    endloop
  endfacet
  facet normal 0 0 1
    outer loop
      vertex 79 79 8.5
      vertex 2 78 8.5
      vertex 78 78 8.5
    endloop
  endfacet
  facet normal 0 0 1
    outer loop
      vertex 2 78 8.5
      vertex 1 79 8.5
      vertex 2 2 8.5
    endloop
  endfacet
  facet normal -0 0 1
    outer loop
      vertex 1 79 8.5
      vertex 2 78 8.5
      vertex 79 79 8.5
    endloop
  endfacet
  facet normal -0 0 1
    outer loop
      vertex 78 2 8.5
      vertex 79 1 8.5
      vertex 78 78 8.5
    endloop
  endfacet
  facet normal 0 0 1
    outer loop
      vertex 66 1 8.5
      vertex 78 2 8.5
      vertex 66 2 8.5
    endloop
  endfacet
  facet normal 0 0 1
    outer loop
      vertex 78 2 8.5
      vertex 66 1 8.5
      vertex 79 1 8.5
    endloop
  endfacet
  facet normal -0 0 1
    outer loop
      vertex 2 2 8.5
      vertex 12 1 8.5
      vertex 12 2 8.5
    endloop
  endfacet
  facet normal 0 0 1
    outer loop
      vertex 2 2 8.5
      vertex 1 1 8.5
      vertex 12 1 8.5
    endloop
  endfacet
  facet normal 0 0 1
    outer loop
      vertex 1 1 8.5
      vertex 2 2 8.5
      vertex 1 79 8.5
    endloop
  endfacet
  facet normal -0 0 1
    outer loop
      vertex 22 2 8.5
      vertex 56 1 8.5
      vertex 56 2 8.5
    endloop
  endfacet
  facet normal 0 0 1
    outer loop
      vertex 56 1 8.5
      vertex 22 2 8.5
      vertex 22 1 8.5
    endloop
  endfacet
  facet normal 1 -0 0
    outer loop
      vertex 1 1 12
      vertex 1 79 8.5
      vertex 1 79 12
    endloop
  endfacet
  facet normal 1 0 0
    outer loop
      vertex 1 79 8.5
      vertex 1 1 12
      vertex 1 1 8.5
    endloop
  endfacet
  facet normal 0 -1 0
    outer loop
      vertex 12 2 8.5
      vertex 2 2 12
      vertex 2 2 8.5
    endloop
  endfacet
  facet normal 0 -1 0
    outer loop
      vertex 2 2 12
      vertex 12 2 8.5
      vertex 17 2 12
    endloop
  endfacet
  facet normal 0 -1 -0
    outer loop
      vertex 17 2 12
      vertex 12 2 8.5
      vertex 17 2 8.5
    endloop
  endfacet
  facet normal 0 -1 0
    outer loop
      vertex 66 2 8.5
      vertex 61 2 12
      vertex 61 2 8.5
    endloop
  endfacet
  facet normal 0 -1 0
    outer loop
      vertex 61 2 12
      vertex 66 2 8.5
      vertex 78 2 12
    endloop
  endfacet
  facet normal 0 -1 -0
    outer loop
      vertex 78 2 12
      vertex 66 2 8.5
      vertex 78 2 8.5
    endloop
  endfacet
  facet normal 0 -1 0
    outer loop
      vertex 22 2 8.5
      vertex 56 2 12
      vertex 22 2 12
    endloop
  endfacet
  facet normal 0 -1 -0
    outer loop
      vertex 56 2 12
      vertex 22 2 8.5
      vertex 56 2 8.5
    endloop
  endfacet
  facet normal 0 1 0
    outer loop
      vertex 66 1 8.5
      vertex 79 1 12
      vertex 79 1 8.5
    endloop
  endfacet
  facet normal 0 1 0
    outer loop
      vertex 79 1 12
      vertex 66 1 8.5
      vertex 61 1 12
    endloop
  endfacet
  facet normal 0 1 0
    outer loop
      vertex 61 1 12
      vertex 66 1 8.5
      vertex 61 1 8.5
    endloop
  endfacet
  facet normal 0 1 0
    outer loop
      vertex 12 1 8.5
      vertex 17 1 12
      vertex 17 1 8.5
    endloop
  endfacet
  facet normal 0 1 0
    outer loop
      vertex 17 1 12
      vertex 12 1 8.5
      vertex 1 1 12
    endloop
  endfacet
  facet normal 0 1 0
    outer loop
      vertex 1 1 12
      vertex 12 1 8.5
      vertex 1 1 8.5
    endloop
  endfacet
  facet normal 0 1 -0
    outer loop
      vertex 56 1 8.5
      vertex 22 1 12
      vertex 56 1 12
    endloop
  endfacet
  facet normal 0 1 0
    outer loop
      vertex 22 1 12
      vertex 56 1 8.5
      vertex 22 1 8.5
    endloop
  endfacet
  facet normal 0 -1 0
    outer loop
      vertex 1 79 8.5
      vertex 79 79 12
      vertex 1 79 12
    endloop
  endfacet
  facet normal 0 -1 -0
    outer loop
      vertex 79 79 12
      vertex 1 79 8.5
      vertex 79 79 8.5
    endloop
  endfacet
  facet normal 0 1 -0
    outer loop
      vertex 78 78 8.5
      vertex 2 78 12
      vertex 78 78 12
    endloop
  endfacet
  facet normal 0 1 0
    outer loop
      vertex 2 78 12
      vertex 78 78 8.5
      vertex 2 78 8.5
    endloop
  endfacet
  facet normal -1 0 0
    outer loop
      vertex 2 2 8.5
      vertex 2 78 12
      vertex 2 78 8.5
    endloop
  endfacet
  facet normal -1 -0 0
    outer loop
      vertex 2 78 12
      vertex 2 2 8.5
      vertex 2 2 12
    endloop
  endfacet
  facet normal 1 -0 0
    outer loop
      vertex 78 2 12
      vertex 78 78 8.5
      vertex 78 78 12
    endloop
  endfacet
  facet normal 1 0 0
    outer loop
      vertex 78 78 8.5
      vertex 78 2 12
      vertex 78 2 8.5
    endloop
  endfacet
  facet normal 1 -0 0
    outer loop
      vertex 80 0 12
      vertex 80 80 0
      vertex 80 80 12
    endloop
  endfacet
  facet normal 1 0 0
    outer loop
      vertex 80 80 0
      vertex 80 0 12
      vertex 80 0 0
    endloop
  endfacet
  facet normal 0 0 1
    outer loop
      vertex 80 80 12
      vertex 79 79 12
      vertex 80 0 12
    endloop
  endfacet
  facet normal 0 0 1
    outer loop
      vertex 80 80 12
      vertex 1 79 12
      vertex 79 79 12
    endloop
  endfacet
  facet normal 0 0 1
    outer loop
      vertex 1 79 12
      vertex 0 80 12
      vertex 1 1 12
    endloop
  endfacet
  facet normal -0 0 1
    outer loop
      vertex 0 80 12
      vertex 1 79 12
      vertex 80 80 12
    endloop
  endfacet
  facet normal -0 0 1
    outer loop
      vertex 79 1 12
      vertex 80 0 12
      vertex 79 79 12
    endloop
  endfacet
  facet normal 0 0 1
    outer loop
      vertex 61 0 12
      vertex 79 1 12
      vertex 61 1 12
    endloop
  endfacet
  facet normal 0 0 1
    outer loop
      vertex 79 1 12
      vertex 61 0 12
      vertex 80 0 12
    endloop
  endfacet
  facet normal -0 0 1
    outer loop
      vertex 1 1 12
      vertex 17 0 12
      vertex 17 1 12
    endloop
  endfacet
  facet normal 0 0 1
    outer loop
      vertex 1 1 12
      vertex 0 0 12
      vertex 17 0 12
    endloop
  endfacet
  facet normal 0 0 1
    outer loop
      vertex 0 0 12
      vertex 1 1 12
      vertex 0 80 12
    endloop
  endfacet
  facet normal 0 0 1
    outer loop
      vertex 78 78 12
      vertex 77 77 12
      vertex 78 2 12
    endloop
  endfacet
  facet normal 0 0 1
    outer loop
      vertex 78 78 12
      vertex 3 77 12
      vertex 77 77 12
    endloop
  endfacet
  facet normal 0 0 1
    outer loop
      vertex 3 77 12
      vertex 2 78 12
      vertex 3 3 12
    endloop
  endfacet
  facet normal -0 0 1
    outer loop
      vertex 2 78 12
      vertex 3 77 12
      vertex 78 78 12
    endloop
  endfacet
  facet normal -0 0 1
    outer loop
      vertex 77 3 12
      vertex 78 2 12
      vertex 77 77 12
    endloop
  endfacet
  facet normal 0 0 1
    outer loop
      vertex 61 2 12
      vertex 77 3 12
      vertex 61 3 12
    endloop
  endfacet
  facet normal 0 0 1
    outer loop
      vertex 77 3 12
      vertex 61 2 12
      vertex 78 2 12
    endloop
  endfacet
  facet normal -0 0 1
    outer loop
      vertex 3 3 12
      vertex 17 2 12
      vertex 17 3 12
    endloop
  endfacet
  facet normal 0 0 1
    outer loop
      vertex 3 3 12
      vertex 2 2 12
      vertex 17 2 12
    endloop
  endfacet
  facet normal 0 0 1
    outer loop
      vertex 2 2 12
      vertex 3 3 12
      vertex 2 78 12
    endloop
  endfacet
  facet normal -0 0 1
    outer loop
      vertex 22 1 12
      vertex 56 0 12
      vertex 56 1 12
    endloop
  endfacet
  facet normal 0 0 1
    outer loop
      vertex 56 0 12
      vertex 22 1 12
      vertex 22 0 12
    endloop
  endfacet
  facet normal -0 0 1
    outer loop
      vertex 22 3 12
      vertex 56 2 12
      vertex 56 3 12
    endloop
  endfacet
  facet normal 0 0 1
    outer loop
      vertex 56 2 12
      vertex 22 3 12
      vertex 22 2 12
    endloop
  endfacet
  facet normal 0 0 -1
    outer loop
      vertex 0 0 0
      vertex 80 80 0
      vertex 80 0 0
    endloop
  endfacet
  facet normal -0 0 -1
    outer loop
      vertex 80 80 0
      vertex 0 0 0
      vertex 0 80 0
    endloop
  endfacet
  facet normal -1 0 0
    outer loop
      vertex 0 0 0
      vertex 0 80 12
      vertex 0 80 0
    endloop
  endfacet
  facet normal -1 -0 0
    outer loop
      vertex 0 80 12
      vertex 0 0 0
      vertex 0 0 12
    endloop
  endfacet
  facet normal 0 1 -0
    outer loop
      vertex 80 80 0
      vertex 0 80 12
      vertex 80 80 12
    endloop
  endfacet
  facet normal 0 1 0
    outer loop
      vertex 0 80 12
      vertex 80 80 0
      vertex 0 80 0
    endloop
  endfacet
  facet normal 0 -1 0
    outer loop
      vertex 0 0 12
      vertex 12 0 8.5
      vertex 17 0 12
    endloop
  endfacet
  facet normal 0 -1 0
    outer loop
      vertex 0 0 12
      vertex 12 0 3.5
      vertex 12 0 8.5
    endloop
  endfacet
  facet normal 0 -1 0
    outer loop
      vertex 0 0 0
      vertex 22 0 3.5
      vertex 12 0 3.5
    endloop
  endfacet
  facet normal 0 -1 -0
    outer loop
      vertex 22 0 3.5
      vertex 0 0 0
      vertex 56 0 3.5
    endloop
  endfacet
  facet normal 0 -1 0
    outer loop
      vertex 80 0 0
      vertex 56 0 3.5
      vertex 0 0 0
    endloop
  endfacet
  facet normal 0 -1 0
    outer loop
      vertex 0 0 0
      vertex 12 0 3.5
      vertex 0 0 12
    endloop
  endfacet
  facet normal 0 -1 -0
    outer loop
      vertex 17 0 12
      vertex 12 0 8.5
      vertex 17 0 8.5
    endloop
  endfacet
  facet normal 0 -1 0
    outer loop
      vertex 22 0 3.5
      vertex 56 0 12
      vertex 22 0 12
    endloop
  endfacet
  facet normal 0 -1 -0
    outer loop
      vertex 56 0 12
      vertex 22 0 3.5
      vertex 56 0 3.5
    endloop
  endfacet
  facet normal 0 -1 0
    outer loop
      vertex 66 0 8.5
      vertex 61 0 12
      vertex 61 0 8.5
    endloop
  endfacet
  facet normal 0 -1 0
    outer loop
      vertex 61 0 12
      vertex 66 0 8.5
      vertex 80 0 12
    endloop
  endfacet
  facet normal 0 -1 0
    outer loop
      vertex 66 0 3.5
      vertex 80 0 12
      vertex 66 0 8.5
    endloop
  endfacet
  facet normal 0 -1 0
    outer loop
      vertex 66 0 3.5
      vertex 80 0 0
      vertex 80 0 12
    endloop
  endfacet
  facet normal 0 -1 0
    outer loop
      vertex 56 0 3.5
      vertex 80 0 0
      vertex 66 0 3.5
    endloop
  endfacet
  facet normal -1 0 0
    outer loop
      vertex 77 3 3
      vertex 77 77 12
      vertex 77 77 3
    endloop
  endfacet
  facet normal -1 -0 0
    outer loop
      vertex 77 77 12
      vertex 77 3 3
      vertex 77 3 12
    endloop
  endfacet
  facet normal 0 0 1
    outer loop
      vertex 77 77 3
      vertex 43 40 3
      vertex 77 3 3
    endloop
  endfacet
  facet normal 0 0 1
    outer loop
      vertex 77 77 3
      vertex 42.4271 41.7634 3
      vertex 43 40 3
    endloop
  endfacet
  facet normal 0 0 1
    outer loop
      vertex 77 77 3
      vertex 40.9271 42.8532 3
      vertex 42.4271 41.7634 3
    endloop
  endfacet
  facet normal 0 0 1
    outer loop
      vertex 77 77 3
      vertex 39.0729 42.8532 3
      vertex 40.9271 42.8532 3
    endloop
  endfacet
  facet normal -0 0 1
    outer loop
      vertex 3 77 3
      vertex 39.0729 42.8532 3
      vertex 77 77 3
    endloop
  endfacet
  facet normal 0 0 1
    outer loop
      vertex 37.5729 41.7634 3
      vertex 3 77 3
      vertex 37 40 3
    endloop
  endfacet
  facet normal 0 0 1
    outer loop
      vertex 39.0729 42.8532 3
      vertex 3 77 3
      vertex 37.5729 41.7634 3
    endloop
  endfacet
  facet normal -0 0 1
    outer loop
      vertex 42.4271 38.2366 3
      vertex 77 3 3
      vertex 43 40 3
    endloop
  endfacet
  facet normal -0 0 1
    outer loop
      vertex 40.9271 37.1468 3
      vertex 77 3 3
      vertex 42.4271 38.2366 3
    endloop
  endfacet
  facet normal -0 0 1
    outer loop
      vertex 39.0729 37.1468 3
      vertex 77 3 3
      vertex 40.9271 37.1468 3
    endloop
  endfacet
  facet normal 0 0 1
    outer loop
      vertex 3 3 3
      vertex 39.0729 37.1468 3
      vertex 37.5729 38.2366 3
    endloop
  endfacet
  facet normal 0 0 1
    outer loop
      vertex 3 3 3
      vertex 37 40 3
      vertex 3 77 3
    endloop
  endfacet
  facet normal 0 0 1
    outer loop
      vertex 39.0729 37.1468 3
      vertex 3 3 3
      vertex 77 3 3
    endloop
  endfacet
  facet normal 0 0 1
    outer loop
      vertex 37 40 3
      vertex 3 3 3
      vertex 37.5729 38.2366 3
    endloop
  endfacet
  facet normal 1 -0 0
    outer loop
      vertex 3 3 12
      vertex 3 77 3
      vertex 3 77 12
    endloop
  endfacet
  facet normal 1 0 0
    outer loop
      vertex 3 77 3
      vertex 3 3 12
      vertex 3 3 3
    endloop
  endfacet
  facet normal 0 -1 0
    outer loop
      vertex 3 77 3
      vertex 77 77 12
      vertex 3 77 12
    endloop
  endfacet
  facet normal 0 -1 -0
    outer loop
      vertex 77 77 12
      vertex 3 77 3
      vertex 77 77 3
    endloop
  endfacet
  facet normal 0 1 0
    outer loop
      vertex 77 3 12
      vertex 66 3 8.5
      vertex 61 3 12
    endloop
  endfacet
  facet normal 0 1 -0
    outer loop
      vertex 77 3 3
      vertex 66 3 8.5
      vertex 77 3 12
    endloop
  endfacet
  facet normal 0 1 0
    outer loop
      vertex 77 3 3
      vertex 56 3 3.5
      vertex 66 3 3.5
    endloop
  endfacet
  facet normal 0 1 0
    outer loop
      vertex 56 3 3.5
      vertex 77 3 3
      vertex 22 3 3.5
    endloop
  endfacet
  facet normal 0 1 0
    outer loop
      vertex 22 3 3.5
      vertex 77 3 3
      vertex 3 3 3
    endloop
  endfacet
  facet normal 0 1 0
    outer loop
      vertex 66 3 8.5
      vertex 77 3 3
      vertex 66 3 3.5
    endloop
  endfacet
  facet normal 0 1 0
    outer loop
      vertex 61 3 12
      vertex 66 3 8.5
      vertex 61 3 8.5
    endloop
  endfacet
  facet normal 0 1 -0
    outer loop
      vertex 56 3 3.5
      vertex 22 3 12
      vertex 56 3 12
    endloop
  endfacet
  facet normal 0 1 0
    outer loop
      vertex 22 3 12
      vertex 56 3 3.5
      vertex 22 3 3.5
    endloop
  endfacet
  facet normal 0 1 0
    outer loop
      vertex 12 3 8.5
      vertex 17 3 12
      vertex 17 3 8.5
    endloop
  endfacet
  facet normal 0 1 0
    outer loop
      vertex 17 3 12
      vertex 12 3 8.5
      vertex 3 3 12
    endloop
  endfacet
  facet normal 0 1 0
    outer loop
      vertex 3 3 3
      vertex 12 3 8.5
      vertex 12 3 3.5
    endloop
  endfacet
  facet normal 0 1 0
    outer loop
      vertex 12 3 8.5
      vertex 3 3 3
      vertex 3 3 12
    endloop
  endfacet
  facet normal 0 1 0
    outer loop
      vertex 22 3 3.5
      vertex 3 3 3
      vertex 12 3 3.5
    endloop
  endfacet
  facet normal -1 0 0
    outer loop
      vertex 22 3 3.5
      vertex 22 2 8.5
      vertex 22 3 12
    endloop
  endfacet
  facet normal -1 0 0
    outer loop
      vertex 22 3 3.5
      vertex 22 1 8.5
      vertex 22 2 8.5
    endloop
  endfacet
  facet normal -1 0 0
    outer loop
      vertex 22 0 3.5
      vertex 22 1 8.5
      vertex 22 3 3.5
    endloop
  endfacet
  facet normal -1 0 0
    outer loop
      vertex 22 0 12
      vertex 22 1 8.5
      vertex 22 0 3.5
    endloop
  endfacet
  facet normal -1 0 0
    outer loop
      vertex 22 1 8.5
      vertex 22 0 12
      vertex 22 1 12
    endloop
  endfacet
  facet normal -1 -0 0
    outer loop
      vertex 22 3 12
      vertex 22 2 8.5
      vertex 22 2 12
    endloop
  endfacet
  facet normal -0 0 1
    outer loop
      vertex 12 3 3.5
      vertex 22 0 3.5
      vertex 22 3 3.5
    endloop
  endfacet
  facet normal 0 0 1
    outer loop
      vertex 22 0 3.5
      vertex 12 3 3.5
      vertex 12 0 3.5
    endloop
  endfacet
  facet normal 1 -0 0
    outer loop
      vertex 12 2 8.5
      vertex 12 3 3.5
      vertex 12 3 8.5
    endloop
  endfacet
  facet normal 1 -0 0
    outer loop
      vertex 12 1 8.5
      vertex 12 3 3.5
      vertex 12 2 8.5
    endloop
  endfacet
  facet normal 1 0 0
    outer loop
      vertex 12 0 3.5
      vertex 12 1 8.5
      vertex 12 0 8.5
    endloop
  endfacet
  facet normal 1 0 0
    outer loop
      vertex 12 1 8.5
      vertex 12 0 3.5
      vertex 12 3 3.5
    endloop
  endfacet
  facet normal 1 -0 0
    outer loop
      vertex 17 0 12
      vertex 17 1 8.5
      vertex 17 1 12
    endloop
  endfacet
  facet normal 1 0 0
    outer loop
      vertex 17 1 8.5
      vertex 17 0 12
      vertex 17 0 8.5
    endloop
  endfacet
  facet normal 1 -0 0
    outer loop
      vertex 17 2 12
      vertex 17 3 8.5
      vertex 17 3 12
    endloop
  endfacet
  facet normal 1 0 0
    outer loop
      vertex 17 3 8.5
      vertex 17 2 12
      vertex 17 2 8.5
    endloop
  endfacet
  facet normal -1 0 0
    outer loop
      vertex 66 3 3.5
      vertex 66 2 8.5
      vertex 66 3 8.5
    endloop
  endfacet
  facet normal -1 0 0
    outer loop
      vertex 66 3 3.5
      vertex 66 1 8.5
      vertex 66 2 8.5
    endloop
  endfacet
  facet normal -1 0 0
    outer loop
      vertex 66 0 3.5
      vertex 66 1 8.5
      vertex 66 3 3.5
    endloop
  endfacet
  facet normal -1 -0 0
    outer loop
      vertex 66 1 8.5
      vertex 66 0 3.5
      vertex 66 0 8.5
    endloop
  endfacet
  facet normal -0 0 1
    outer loop
      vertex 56 3 3.5
      vertex 66 0 3.5
      vertex 66 3 3.5
    endloop
  endfacet
  facet normal 0 0 1
    outer loop
      vertex 66 0 3.5
      vertex 56 3 3.5
      vertex 56 0 3.5
    endloop
  endfacet
  facet normal 1 0 0
    outer loop
      vertex 56 1 12
      vertex 56 0 12
      vertex 56 1 8.5
    endloop
  endfacet
  facet normal 1 0 0
    outer loop
      vertex 56 2 8.5
      vertex 56 3 12
      vertex 56 2 12
    endloop
  endfacet
  facet normal 1 0 0
    outer loop
      vertex 56 3 12
      vertex 56 2 8.5
      vertex 56 3 3.5
    endloop
  endfacet
  facet normal 1 -0 0
    outer loop
      vertex 56 1 8.5
      vertex 56 3 3.5
      vertex 56 2 8.5
    endloop
  endfacet
  facet normal 1 0 0
    outer loop
      vertex 56 1 8.5
      vertex 56 0 3.5
      vertex 56 3 3.5
    endloop
  endfacet
  facet normal 1 0 0
    outer loop
      vertex 56 0 3.5
      vertex 56 1 8.5
      vertex 56 0 12
    endloop
  endfacet
  facet normal -1 0 0
    outer loop
      vertex 61 2 8.5
      vertex 61 3 12
      vertex 61 3 8.5
    endloop
  endfacet
  facet normal -1 -0 0
    outer loop
      vertex 61 3 12
      vertex 61 2 8.5
      vertex 61 2 12
    endloop
  endfacet
  facet normal -1 0 0
    outer loop
      vertex 61 0 8.5
      vertex 61 1 12
      vertex 61 1 8.5
    endloop
  endfacet
  facet normal -1 -0 0
    outer loop
      vertex 61 1 12
      vertex 61 0 8.5
      vertex 61 0 12
    endloop
  endfacet
  facet normal 1 -0 0
    outer loop
      vertex 172 0 3
      vertex 172 80 0
      vertex 172 80 3
    endloop
  endfacet
  facet normal 1 0 0
    outer loop
      vertex 172 80 0
      vertex 172 0 3
      vertex 172 0 0
    endloop
  endfacet
  facet normal 0 0 1
    outer loop
      vertex 172 80 3
      vertex 171 79 3
      vertex 172 0 3
    endloop
  endfacet
  facet normal 0 0 1
    outer loop
      vertex 172 80 3
      vertex 93 79 3
      vertex 171 79 3
    endloop
  endfacet
  facet normal 0 0 1
    outer loop
      vertex 93 79 3
      vertex 92 80 3
      vertex 93 1 3
    endloop
  endfacet
  facet normal -0 0 1
    outer loop
      vertex 92 80 3
      vertex 93 79 3
      vertex 172 80 3
    endloop
  endfacet
  facet normal -0 0 1
    outer loop
      vertex 171 1 3
      vertex 172 0 3
      vertex 171 79 3
    endloop
  endfacet
  facet normal -0 0 1
    outer loop
      vertex 93 1 3
      vertex 172 0 3
      vertex 171 1 3
    endloop
  endfacet
  facet normal 0 0 1
    outer loop
      vertex 93 1 3
      vertex 92 0 3
      vertex 172 0 3
    endloop
  endfacet
  facet normal 0 0 1
    outer loop
      vertex 92 0 3
      vertex 93 1 3
      vertex 92 80 3
    endloop
  endfacet
  facet normal 0 0 1
    outer loop
      vertex 170 78 3
      vertex 135 40 3
      vertex 170 2 3
    endloop
  endfacet
  facet normal 0 0 1
    outer loop
      vertex 170 78 3
      vertex 134.427 41.7634 3
      vertex 135 40 3
    endloop
  endfacet
  facet normal 0 0 1
    outer loop
      vertex 170 78 3
      vertex 132.927 42.8532 3
      vertex 134.427 41.7634 3
    endloop
  endfacet
  facet normal 0 0 1
    outer loop
      vertex 170 78 3
      vertex 131.073 42.8532 3
      vertex 132.927 42.8532 3
    endloop
  endfacet
  facet normal -0 0 1
    outer loop
      vertex 94 78 3
      vertex 131.073 42.8532 3
      vertex 170 78 3
    endloop
  endfacet
  facet normal 0 0 1
    outer loop
      vertex 129.573 41.7634 3
      vertex 94 78 3
      vertex 129 40 3
    endloop
  endfacet
  facet normal 0 0 1
    outer loop
      vertex 131.073 42.8532 3
      vertex 94 78 3
      vertex 129.573 41.7634 3
    endloop
  endfacet
  facet normal -0 0 1
    outer loop
      vertex 134.427 38.2366 3
      vertex 170 2 3
      vertex 135 40 3
    endloop
  endfacet
  facet normal -0 0 1
    outer loop
      vertex 132.927 37.1468 3
      vertex 170 2 3
      vertex 134.427 38.2366 3
    endloop
  endfacet
  facet normal -0 0 1
    outer loop
      vertex 131.073 37.1468 3
      vertex 170 2 3
      vertex 132.927 37.1468 3
    endloop
  endfacet
  facet normal 0 0 1
    outer loop
      vertex 94 2 3
      vertex 131.073 37.1468 3
      vertex 129.573 38.2366 3
    endloop
  endfacet
  facet normal 0 0 1
    outer loop
      vertex 94 2 3
      vertex 129 40 3
      vertex 94 78 3
    endloop
  endfacet
  facet normal 0 0 1
    outer loop
      vertex 131.073 37.1468 3
      vertex 94 2 3
      vertex 170 2 3
    endloop
  endfacet
  facet normal 0 0 1
    outer loop
      vertex 129 40 3
      vertex 94 2 3
      vertex 129.573 38.2366 3
    endloop
  endfacet
  facet normal 0 0 -1
    outer loop
      vertex 172 0 0
      vertex 135 40 0
      vertex 172 80 0
    endloop
  endfacet
  facet normal 0 0 -1
    outer loop
      vertex 172 0 0
      vertex 134.427 38.2366 0
      vertex 135 40 0
    endloop
  endfacet
  facet normal 0 0 -1
    outer loop
      vertex 172 0 0
      vertex 132.927 37.1468 0
      vertex 134.427 38.2366 0
    endloop
  endfacet
  facet normal 0 0 -1
    outer loop
      vertex 172 0 0
      vertex 131.073 37.1468 0
      vertex 132.927 37.1468 0
    endloop
  endfacet
  facet normal 0 0 -1
    outer loop
      vertex 92 0 0
      vertex 131.073 37.1468 0
      vertex 172 0 0
    endloop
  endfacet
  facet normal -0 0 -1
    outer loop
      vertex 129.573 38.2366 0
      vertex 92 0 0
      vertex 129 40 0
    endloop
  endfacet
  facet normal -0 0 -1
    outer loop
      vertex 131.073 37.1468 0
      vertex 92 0 0
      vertex 129.573 38.2366 0
    endloop
  endfacet
  facet normal 0 0 -1
    outer loop
      vertex 134.427 41.7634 0
      vertex 172 80 0
      vertex 135 40 0
    endloop
  endfacet
  facet normal 0 0 -1
    outer loop
      vertex 132.927 42.8532 0
      vertex 172 80 0
      vertex 134.427 41.7634 0
    endloop
  endfacet
  facet normal 0 0 -1
    outer loop
      vertex 131.073 42.8532 0
      vertex 172 80 0
      vertex 132.927 42.8532 0
    endloop
  endfacet
  facet normal 0 0 -1
    outer loop
      vertex 92 80 0
      vertex 131.073 42.8532 0
      vertex 129.573 41.7634 0
    endloop
  endfacet
  facet normal 0 0 -1
    outer loop
      vertex 92 80 0
      vertex 129 40 0
      vertex 92 0 0
    endloop
  endfacet
  facet normal 0 0 -1
    outer loop
      vertex 131.073 42.8532 0
      vertex 92 80 0
      vertex 172 80 0
    endloop
  endfacet
  facet normal 0 0 -1
    outer loop
      vertex 129 40 0
      vertex 92 80 0
      vertex 129.573 41.7634 0
    endloop
  endfacet
  facet normal -1 0 0
    outer loop
      vertex 92 0 0
      vertex 92 80 3
      vertex 92 80 0
    endloop
  endfacet
  facet normal -1 -0 0
    outer loop
      vertex 92 80 3
      vertex 92 0 0
      vertex 92 0 3
    endloop
  endfacet
  facet normal 0 1 -0
    outer loop
      vertex 172 80 0
      vertex 92 80 3
      vertex 172 80 3
    endloop
  endfacet
  facet normal 0 1 0
    outer loop
      vertex 92 80 3
      vertex 172 80 0
      vertex 92 80 0
    endloop
  endfacet
  facet normal 0 -1 0
    outer loop
      vertex 92 0 0
      vertex 172 0 3
      vertex 92 0 3
    endloop
  endfacet
  facet normal 0 -1 -0
    outer loop
      vertex 172 0 3
      vertex 92 0 0
      vertex 172 0 0
    endloop
  endfacet
  facet normal -0.58778 -0.809021 0
    outer loop
      vertex 132.927 42.8532 0
      vertex 134.427 41.7634 3
      vertex 132.927 42.8532 3
    endloop
  endfacet
  facet normal -0.58778 -0.809021 -0
    outer loop
      vertex 134.427 41.7634 3
      vertex 132.927 42.8532 0
      vertex 134.427 41.7634 0
    endloop
  endfacet
  facet normal -0.951051 -0.309035 0
    outer loop
      vertex 135 40 0
      vertex 134.427 41.7634 3
      vertex 134.427 41.7634 0
    endloop
  endfacet
  facet normal -0.951051 -0.309035 0
    outer loop
      vertex 134.427 41.7634 3
      vertex 135 40 0
      vertex 135 40 3
    endloop
  endfacet
  facet normal 0 -1 0
    outer loop
      vertex 131.073 42.8532 0
      vertex 132.927 42.8532 3
      vertex 131.073 42.8532 3
    endloop
  endfacet
  facet normal 0 -1 -0
    outer loop
      vertex 132.927 42.8532 3
      vertex 131.073 42.8532 0
      vertex 132.927 42.8532 0
    endloop
  endfacet
  facet normal 0.951051 -0.309035 0
    outer loop
      vertex 129 40 3
      vertex 129.573 41.7634 0
      vertex 129.573 41.7634 3
    endloop
  endfacet
  facet normal 0.951051 -0.309035 0
    outer loop
      vertex 129.573 41.7634 0
      vertex 129 40 3
      vertex 129 40 0
    endloop
  endfacet
  facet normal 0.58778 -0.809021 0
    outer loop
      vertex 129.573 41.7634 0
      vertex 131.073 42.8532 3
      vertex 129.573 41.7634 3
    endloop
  endfacet
  facet normal 0.58778 -0.809021 0
    outer loop
      vertex 131.073 42.8532 3
      vertex 129.573 41.7634 0
      vertex 131.073 42.8532 0
    endloop
  endfacet
  facet normal 0.951051 0.309035 0
    outer loop
      vertex 129.573 38.2366 3
      vertex 129 40 0
      vertex 129 40 3
    endloop
  endfacet
  facet normal 0.951051 0.309035 0
    outer loop
      vertex 129 40 0
      vertex 129.573 38.2366 3
      vertex 129.573 38.2366 0
    endloop
  endfacet
  facet normal -0.58778 0.809021 0
    outer loop
      vertex 134.427 38.2366 0
      vertex 132.927 37.1468 3
      vertex 134.427 38.2366 3
    endloop
  endfacet
  facet normal -0.58778 0.809021 0
    outer loop
      vertex 132.927 37.1468 3
      vertex 134.427 38.2366 0
      vertex 132.927 37.1468 0
    endloop
  endfacet
  facet normal 0 1 -0
    outer loop
      vertex 132.927 37.1468 0
      vertex 131.073 37.1468 3
      vertex 132.927 37.1468 3
    endloop
  endfacet
  facet normal 0 1 0
    outer loop
      vertex 131.073 37.1468 3
      vertex 132.927 37.1468 0
      vertex 131.073 37.1468 0
    endloop
  endfacet
  facet normal 0.58778 0.809021 -0
    outer loop
      vertex 131.073 37.1468 0
      vertex 129.573 38.2366 3
      vertex 131.073 37.1468 3
    endloop
  endfacet
  facet normal 0.58778 0.809021 0
    outer loop
      vertex 129.573 38.2366 3
      vertex 131.073 37.1468 0
      vertex 129.573 38.2366 0
    endloop
  endfacet
  facet normal -0.951051 0.309035 0
    outer loop
      vertex 134.427 38.2366 0
      vertex 135 40 3
      vertex 135 40 0
    endloop
  endfacet
  facet normal -0.951051 0.309035 0
    outer loop
      vertex 135 40 3
      vertex 134.427 38.2366 0
      vertex 134.427 38.2366 3
    endloop
  endfacet
  facet normal 1 -0 0
    outer loop
      vertex 171 1 6.5
      vertex 171 79 3
      vertex 171 79 6.5
    endloop
  endfacet
  facet normal 1 0 0
    outer loop
      vertex 171 79 3
      vertex 171 1 6.5
      vertex 171 1 3
    endloop
  endfacet
  facet normal 0 0 1
    outer loop
      vertex 171 79 6.5
      vertex 170 78 6.5
      vertex 171 1 6.5
    endloop
  endfacet
  facet normal 0 0 1
    outer loop
      vertex 171 79 6.5
      vertex 94 78 6.5
      vertex 170 78 6.5
    endloop
  endfacet
  facet normal 0 0 1
    outer loop
      vertex 94 78 6.5
      vertex 93 79 6.5
      vertex 94 2 6.5
    endloop
  endfacet
  facet normal -0 0 1
    outer loop
      vertex 93 79 6.5
      vertex 94 78 6.5
      vertex 171 79 6.5
    endloop
  endfacet
  facet normal -0 0 1
    outer loop
      vertex 170 2 6.5
      vertex 171 1 6.5
      vertex 170 78 6.5
    endloop
  endfacet
  facet normal -0 0 1
    outer loop
      vertex 94 2 6.5
      vertex 171 1 6.5
      vertex 170 2 6.5
    endloop
  endfacet
  facet normal 0 0 1
    outer loop
      vertex 94 2 6.5
      vertex 93 1 6.5
      vertex 171 1 6.5
    endloop
  endfacet
  facet normal 0 0 1
    outer loop
      vertex 93 1 6.5
      vertex 94 2 6.5
      vertex 93 79 6.5
    endloop
  endfacet
  facet normal -1 0 0
    outer loop
      vertex 93 1 3
      vertex 93 79 6.5
      vertex 93 79 3
    endloop
  endfacet
  facet normal -1 -0 0
    outer loop
      vertex 93 79 6.5
      vertex 93 1 3
      vertex 93 1 6.5
    endloop
  endfacet
  facet normal 0 1 -0
    outer loop
      vertex 170 2 3
      vertex 94 2 6.5
      vertex 170 2 6.5
    endloop
  endfacet
  facet normal 0 1 0
    outer loop
      vertex 94 2 6.5
      vertex 170 2 3
      vertex 94 2 3
    endloop
  endfacet
  facet normal 0 -1 0
    outer loop
      vertex 93 1 3
      vertex 171 1 6.5
      vertex 93 1 6.5
    endloop
  endfacet
  facet normal 0 -1 -0
    outer loop
      vertex 171 1 6.5
      vertex 93 1 3
      vertex 171 1 3
    endloop
  endfacet
  facet normal 0 1 -0
    outer loop
      vertex 171 79 3
      vertex 93 79 6.5
      vertex 171 79 6.5
    endloop
  endfacet
  facet normal 0 1 0
    outer loop
      vertex 93 79 6.5
      vertex 171 79 3
      vertex 93 79 3
    endloop
  endfacet
  facet normal 0 -1 0
    outer loop
      vertex 94 78 3
      vertex 170 78 6.5
      vertex 94 78 6.5
    endloop
  endfacet
  facet normal 0 -1 -0
    outer loop
      vertex 170 78 6.5
      vertex 94 78 3
      vertex 170 78 3
    endloop
  endfacet
  facet normal 1 -0 0
    outer loop
      vertex 94 2 6.5
      vertex 94 78 3
      vertex 94 78 6.5
    endloop
  endfacet
  facet normal 1 0 0
    outer loop
      vertex 94 78 3
      vertex 94 2 6.5
      vertex 94 2 3
    endloop
  endfacet
  facet normal -1 0 0
    outer loop
      vertex 170 2 3
      vertex 170 78 6.5
      vertex 170 78 3
    endloop
  endfacet
  facet normal -1 -0 0
    outer loop
      vertex 170 78 6.5
      vertex 170 2 3
      vertex 170 2 6.5
    endloop
  endfacet
  facet normal -0.951067 0.308986 0
    outer loop
      vertex 37 40 3
      vertex 37.5729 41.7634 15
      vertex 37.5729 41.7634 3
    endloop
  endfacet
  facet normal -0.951067 0.308986 0
    outer loop
      vertex 37.5729 41.7634 15
      vertex 37 40 3
      vertex 37 40 15
    endloop
  endfacet
  facet normal -0.58778 -0.809021 0
    outer loop
      vertex 37.5729 38.2366 3
      vertex 39.0729 37.1468 15
      vertex 37.5729 38.2366 15
    endloop
  endfacet
  facet normal -0.58778 -0.809021 -0
    outer loop
      vertex 39.0729 37.1468 15
      vertex 37.5729 38.2366 3
      vertex 39.0729 37.1468 3
    endloop
  endfacet
  facet normal 0.58778 0.809021 -0
    outer loop
      vertex 42.4271 41.7634 3
      vertex 40.9271 42.8532 15
      vertex 42.4271 41.7634 15
    endloop
  endfacet
  facet normal 0.58778 0.809021 0
    outer loop
      vertex 40.9271 42.8532 15
      vertex 42.4271 41.7634 3
      vertex 40.9271 42.8532 3
    endloop
  endfacet
  facet normal 0.951067 0.308986 0
    outer loop
      vertex 43 40 15
      vertex 42.4271 41.7634 3
      vertex 42.4271 41.7634 15
    endloop
  endfacet
  facet normal 0.951067 0.308986 0
    outer loop
      vertex 42.4271 41.7634 3
      vertex 43 40 15
      vertex 43 40 3
    endloop
  endfacet
  facet normal 0 1 -0
    outer loop
      vertex 40.9271 42.8532 3
      vertex 39.0729 42.8532 15
      vertex 40.9271 42.8532 15
    endloop
  endfacet
  facet normal 0 1 0
    outer loop
      vertex 39.0729 42.8532 15
      vertex 40.9271 42.8532 3
      vertex 39.0729 42.8532 3
    endloop
  endfacet
  facet normal 0.58778 -0.809021 0
    outer loop
      vertex 40.9271 37.1468 3
      vertex 42.4271 38.2366 15
      vertex 40.9271 37.1468 15
    endloop
  endfacet
  facet normal 0.58778 -0.809021 0
    outer loop
      vertex 42.4271 38.2366 15
      vertex 40.9271 37.1468 3
      vertex 42.4271 38.2366 3
    endloop
  endfacet
  facet normal 0 -1 0
    outer loop
      vertex 39.0729 37.1468 3
      vertex 40.9271 37.1468 15
      vertex 39.0729 37.1468 15
    endloop
  endfacet
  facet normal 0 -1 -0
    outer loop
      vertex 40.9271 37.1468 15
      vertex 39.0729 37.1468 3
      vertex 40.9271 37.1468 3
    endloop
  endfacet
  facet normal -0.58778 0.809021 0
    outer loop
      vertex 39.0729 42.8532 3
      vertex 37.5729 41.7634 15
      vertex 39.0729 42.8532 15
    endloop
  endfacet
  facet normal -0.58778 0.809021 0
    outer loop
      vertex 37.5729 41.7634 15
      vertex 39.0729 42.8532 3
      vertex 37.5729 41.7634 3
    endloop
  endfacet
  facet normal 0.951067 -0.308986 0
    outer loop
      vertex 42.4271 38.2366 15
      vertex 43 40 3
      vertex 43 40 15
    endloop
  endfacet
  facet normal 0.951067 -0.308986 0
    outer loop
      vertex 43 40 3
      vertex 42.4271 38.2366 15
      vertex 42.4271 38.2366 3
    endloop
  endfacet
  facet normal -0.951067 -0.308986 0
    outer loop
      vertex 37.5729 38.2366 3
      vertex 37 40 15
      vertex 37 40 3
    endloop
  endfacet
  facet normal -0.951067 -0.308986 0
    outer loop
      vertex 37 40 15
      vertex 37.5729 38.2366 3
      vertex 37.5729 38.2366 15
    endloop
  endfacet
  facet normal 0 0 1
    outer loop
      vertex 42.4271 41.7634 15
      vertex 42.4271 38.2366 15
      vertex 43 40 15
    endloop
  endfacet
  facet normal 0 0 1
    outer loop
      vertex 40.9271 42.8532 15
      vertex 42.4271 38.2366 15
      vertex 42.4271 41.7634 15
    endloop
  endfacet
  facet normal 0 0 1
    outer loop
      vertex 40.9271 42.8532 15
      vertex 40.9271 37.1468 15
      vertex 42.4271 38.2366 15
    endloop
  endfacet
  facet normal -0 0 1
    outer loop
      vertex 39.0729 42.8532 15
      vertex 40.9271 37.1468 15
      vertex 40.9271 42.8532 15
    endloop
  endfacet
  facet normal 0 0 1
    outer loop
      vertex 39.0729 42.8532 15
      vertex 39.0729 37.1468 15
      vertex 40.9271 37.1468 15
    endloop
  endfacet
  facet normal -0 0 1
    outer loop
      vertex 37.5729 41.7634 15
      vertex 39.0729 37.1468 15
      vertex 39.0729 42.8532 15
    endloop
  endfacet
  facet normal 0 0 1
    outer loop
      vertex 37.5729 41.7634 15
      vertex 37.5729 38.2366 15
      vertex 39.0729 37.1468 15
    endloop
  endfacet
  facet normal 0 -0 1
    outer loop
      vertex 37.5729 38.2366 15
      vertex 37.5729 41.7634 15
      vertex 37 40 15
    endloop
  endfacet
endsolid OpenSCAD_Model
